<svg width="46" height="46" viewBox="0 0 46 46" fill="none" xmlns="http://www.w3.org/2000/svg">
  <g clip-path="url(#clip0_1_875)">
    <path d="M45.816 10.6254C45.5826 10.0634 45.136 9.61684 44.5741 9.38346C44.2976 9.26561 44.0006 9.2031 43.7001 9.19946H32.2005C31.5906 9.19946 31.0056 9.44177 30.5743 9.87309C30.143 10.3044 29.9006 10.8894 29.9006 11.4994C29.9006 12.1093 30.143 12.6943 30.5743 13.1257C31.0056 13.557 31.5906 13.7993 32.2005 13.7993H38.1573L25.3008 26.6558L17.7341 19.0661C17.5203 18.8505 17.2659 18.6794 16.9857 18.5626C16.7054 18.4459 16.4048 18.3858 16.1012 18.3858C15.7976 18.3858 15.497 18.4459 15.2167 18.5626C14.9364 18.6794 14.6821 18.8505 14.4683 19.0661L0.6688 32.8655C0.453233 33.0793 0.282133 33.3337 0.16537 33.614C0.0486066 33.8942 -0.0115089 34.1948 -0.0115089 34.4985C-0.0115089 34.8021 0.0486066 35.1027 0.16537 35.3829C0.282133 35.6632 0.453233 35.9176 0.6688 36.1314C0.882607 36.347 1.13698 36.5181 1.41724 36.6348C1.69751 36.7516 1.99812 36.8117 2.30174 36.8117C2.60535 36.8117 2.90596 36.7516 3.18623 36.6348C3.46649 36.5181 3.72086 36.347 3.93467 36.1314L16.1012 23.9419L23.6679 31.5316C23.8817 31.7471 24.1361 31.9182 24.4163 32.035C24.6966 32.1518 24.9972 32.2119 25.3008 32.2119C25.6044 32.2119 25.905 32.1518 26.1853 32.035C26.4656 31.9182 26.72 31.7471 26.9338 31.5316L41.4002 17.0422V22.9989C41.4002 23.6089 41.6425 24.1939 42.0738 24.6252C42.5051 25.0565 43.0901 25.2988 43.7001 25.2988C44.3101 25.2988 44.8951 25.0565 45.3264 24.6252C45.7577 24.1939 46 23.6089 46 22.9989V11.4994C45.9964 11.1988 45.9339 10.9019 45.816 10.6254V10.6254Z" fill="white" />
  </g>
  <defs>
    <clipPath id="clip0_1_875">
      <rect width="46" height="46" fill="white" />
    </clipPath>
  </defs>
</svg>