<svg width="46" height="46" viewBox="0 0 46 46" fill="none" xmlns="http://www.w3.org/2000/svg">
  <path fill-rule="evenodd" clip-rule="evenodd" d="M0 23C0 10.2977 10.2977 0 23 0C35.7023 0 46 10.2977 46 23C46 35.7023 35.7023 46 23 46C10.2977 46 0 35.7023 0 23ZM25.0909 10.4545C25.0909 9.9 24.8706 9.36817 24.4785 8.97605C24.0864 8.58393 23.5545 8.36364 23 8.36364C22.4455 8.36364 21.9136 8.58393 21.5215 8.97605C21.1294 9.36817 20.9091 9.9 20.9091 10.4545V12.5455C19.2455 12.5455 17.65 13.2063 16.4736 14.3827C15.2972 15.5591 14.6364 17.1546 14.6364 18.8182C14.6364 20.4818 15.2972 22.0773 16.4736 23.2537C17.65 24.43 19.2455 25.0909 20.9091 25.0909H25.0909C25.6455 25.0909 26.1773 25.3112 26.5694 25.7033C26.9615 26.0954 27.1818 26.6273 27.1818 27.1818C27.1818 27.7364 26.9615 28.2682 26.5694 28.6603C26.1773 29.0524 25.6455 29.2727 25.0909 29.2727H16.7273C16.1727 29.2727 15.6409 29.493 15.2488 29.8851C14.8567 30.2773 14.6364 30.8091 14.6364 31.3636C14.6364 31.9182 14.8567 32.45 15.2488 32.8421C15.6409 33.2343 16.1727 33.4545 16.7273 33.4545H20.9091V35.5455C20.9091 36.1 21.1294 36.6318 21.5215 37.024C21.9136 37.4161 22.4455 37.6364 23 37.6364C23.5545 37.6364 24.0864 37.4161 24.4785 37.024C24.8706 36.6318 25.0909 36.1 25.0909 35.5455V33.4545C25.9147 33.4545 26.7303 33.2923 27.4914 32.9771C28.2524 32.6618 28.9439 32.1998 29.5264 31.6173C30.1089 31.0348 30.5709 30.3433 30.8862 29.5823C31.2014 28.8212 31.3636 28.0056 31.3636 27.1818C31.3636 26.3581 31.2014 25.5424 30.8862 24.7813C30.5709 24.0203 30.1089 23.3288 29.5264 22.7463C28.9439 22.1639 28.2524 21.7018 27.4914 21.3866C26.7303 21.0713 25.9147 20.9091 25.0909 20.9091H20.9091C20.3545 20.9091 19.8227 20.6888 19.4306 20.2967C19.0385 19.9046 18.8182 19.3727 18.8182 18.8182C18.8182 18.2636 19.0385 17.7318 19.4306 17.3397C19.8227 16.9476 20.3545 16.7273 20.9091 16.7273H29.2727C29.8273 16.7273 30.3591 16.507 30.7512 16.1149C31.1433 15.7227 31.3636 15.1909 31.3636 14.6364C31.3636 14.0818 31.1433 13.55 30.7512 13.1579C30.3591 12.7657 29.8273 12.5455 29.2727 12.5455H25.0909V10.4545Z" fill="white" />
</svg>