<svg width="46" height="46" viewBox="0 0 46 46" fill="none" xmlns="http://www.w3.org/2000/svg">
  <g clip-path="url(#clip0_1_861)">
    <path fill-rule="evenodd" clip-rule="evenodd" d="M6.89991 43.6H39.1C41.6898 43.6 43.5298 42.4707 44.6476 40.9182C45.678 39.4853 46 37.8362 46 36.7V22.9C46 22.29 45.7577 21.705 45.3263 21.2736C44.895 20.8423 44.31 20.6 43.7 20.6H36.8V9.09997C36.8 7.26997 36.073 5.51492 34.779 4.22092C33.485 2.92692 31.73 2.19995 29.9 2.19995H6.89991C5.06991 2.19995 3.31486 2.92692 2.02086 4.22092C0.726857 5.51492 -0.000106812 7.26997 -0.000106812 9.09997V36.7C-0.000106812 37.8339 0.321894 39.4853 1.3523 40.9182C2.4701 42.473 4.3101 43.6 6.89991 43.6ZM39.1 25.2C39.71 25.2 40.295 25.4423 40.7263 25.8737C41.1577 26.305 41.4 26.89 41.4 27.5V36.7C41.4 37.31 41.1577 37.895 40.7263 38.3264C40.295 38.7577 39.71 39 39.1 39C38.49 39 37.905 38.7577 37.4736 38.3264C37.0423 37.895 36.8 37.31 36.8 36.7V27.5C36.8 26.89 37.0423 26.305 37.4736 25.8737C37.905 25.4423 38.49 25.2 39.1 25.2ZM16.0999 18.3C16.0999 17.69 16.3423 17.105 16.7736 16.6736C17.2049 16.2423 17.7899 16 18.3999 16C19.0099 16 19.5949 16.2423 20.0263 16.6736C20.4576 17.105 20.6999 17.69 20.6999 18.3C20.6999 18.91 20.4576 19.495 20.0263 19.9263C19.5949 20.3577 19.0099 20.6 18.3999 20.6C17.7899 20.6 17.2049 20.3577 16.7736 19.9263C16.3423 19.495 16.0999 18.91 16.0999 18.3ZM18.3999 11.4C16.5699 11.4 14.8149 12.1269 13.5209 13.4209C12.2269 14.7149 11.4999 16.47 11.4999 18.3C11.4999 20.13 12.2269 21.885 13.5209 23.179C14.8149 24.473 16.5699 25.2 18.3999 25.2C20.2299 25.2 21.985 24.473 23.279 23.179C24.573 21.885 25.2999 20.13 25.2999 18.3C25.2999 16.47 24.573 14.7149 23.279 13.4209C21.985 12.1269 20.2299 11.4 18.3999 11.4ZM11.4999 29.8C10.8899 29.8 10.3049 30.0423 9.87357 30.4737C9.44224 30.905 9.19991 31.49 9.19991 32.1C9.19991 32.71 9.44224 33.295 9.87357 33.7264C10.3049 34.1577 10.8899 34.4 11.4999 34.4H25.2999C25.9099 34.4 26.495 34.1577 26.9263 33.7264C27.3576 33.295 27.6 32.71 27.6 32.1C27.6 31.49 27.3576 30.905 26.9263 30.4737C26.495 30.0423 25.9099 29.8 25.2999 29.8H11.4999Z" fill="white" />
  </g>
  <defs>
    <clipPath id="clip0_1_861">
      <rect width="46" height="46" fill="white" />
    </clipPath>
  </defs>
</svg>