<svg width="46" height="46" viewBox="0 0 46 46" fill="none" xmlns="http://www.w3.org/2000/svg">
  <path fill-rule="evenodd" clip-rule="evenodd" d="M25.9895 2.40569C26.4564 2.55252 26.8643 2.84448 27.1538 3.2391C27.4434 3.63373 27.5995 4.11043 27.5995 4.59989V16.0999H36.7995C37.2202 16.0997 37.6329 16.2149 37.9927 16.433C38.3524 16.6511 38.6455 16.9636 38.84 17.3367C39.0345 17.7098 39.1229 18.129 39.0957 18.5488C39.0684 18.9687 38.9265 19.373 38.6855 19.7178L22.5855 42.7178C22.3053 43.1192 21.9043 43.4208 21.4408 43.5786C20.9774 43.7364 20.4757 43.7422 20.0088 43.5952C19.5418 43.4482 19.1339 43.156 18.8445 42.7612C18.5551 42.3663 18.3991 41.8894 18.3995 41.3999V29.8999H9.19946C8.77875 29.9001 8.36604 29.7849 8.00626 29.5668C7.64648 29.3487 7.3534 29.0361 7.15892 28.6631C6.96445 28.29 6.87602 27.8708 6.90327 27.4509C6.93051 27.0311 7.07239 26.6268 7.31346 26.282L23.4135 3.28199C23.6941 2.8813 24.0952 2.58051 24.5584 2.42334C25.0217 2.26617 25.5229 2.26079 25.9895 2.40799V2.40569Z" fill="white" />
</svg>