<svg width="146" height="34" viewBox="0 0 146 34" fill="none" xmlns="http://www.w3.org/2000/svg">
<path d="M37.7848 27V6.46524H51.6217V10.0448H42.1263V14.9378H50.9098V18.5174H42.1263V23.4205H51.6618V27H37.7848ZM52.9931 27V11.5989H57.064V14.3162H57.2445C57.5653 13.4138 58.1001 12.7019 58.8488 12.1805C59.5974 11.6591 60.4931 11.3984 61.5359 11.3984C62.5921 11.3984 63.4911 11.6624 64.2331 12.1905C64.9751 12.7119 65.4697 13.4205 65.7171 14.3162H65.8775C66.1917 13.4338 66.7599 12.7286 67.582 12.2005C68.4109 11.6658 69.3902 11.3984 70.5199 11.3984C71.957 11.3984 73.1235 11.8563 74.0192 12.7721C74.9216 13.6812 75.3728 14.9713 75.3728 16.6424V27H71.1115V17.4846C71.1115 16.629 70.8842 15.9873 70.4296 15.5595C69.9751 15.1317 69.4069 14.9178 68.7251 14.9178C67.9497 14.9178 67.3447 15.1651 66.9103 15.6598C66.4758 16.1477 66.2585 16.7928 66.2585 17.5949V27H62.1175V17.3944C62.1175 16.639 61.9002 16.0374 61.4657 15.5896C61.0379 15.1417 60.4731 14.9178 59.7712 14.9178C59.2966 14.9178 58.8688 15.0381 58.4878 15.2787C58.1135 15.5127 57.816 15.8436 57.5954 16.2714C57.3748 16.6925 57.2645 17.1872 57.2645 17.7553V27H52.9931ZM76.827 27V6.46524H81.0984V14.1858H81.2288C81.4159 13.7714 81.6867 13.3503 82.0409 12.9225C82.4019 12.488 82.8698 12.127 83.4447 11.8396C84.0262 11.5455 84.7482 11.3984 85.6105 11.3984C86.7334 11.3984 87.7695 11.6925 88.7187 12.2808C89.6679 12.8623 90.4266 13.7413 90.9948 14.9178C91.563 16.0876 91.8471 17.5548 91.8471 19.3195C91.8471 21.0374 91.5697 22.488 91.0149 23.6711C90.4667 24.8476 89.7181 25.74 88.7689 26.3483C87.8264 26.9499 86.7702 27.2507 85.6004 27.2507C84.7716 27.2507 84.0663 27.1136 83.4848 26.8396C82.9099 26.5655 82.4387 26.2213 82.071 25.8068C81.7034 25.3857 81.4226 24.9612 81.2288 24.5334H81.0383V27H76.827ZM81.0082 19.2995C81.0082 20.2152 81.1352 21.014 81.3892 21.6959C81.6432 22.3777 82.0109 22.9091 82.4921 23.2901C82.9734 23.6644 83.5583 23.8516 84.2468 23.8516C84.942 23.8516 85.5302 23.6611 86.0115 23.2801C86.4928 22.8924 86.8571 22.3576 87.1044 21.6758C87.3584 20.9873 87.4855 20.1952 87.4855 19.2995C87.4855 18.4104 87.3618 17.6283 87.1145 16.9532C86.8671 16.2781 86.5028 15.75 86.0216 15.369C85.5403 14.988 84.9487 14.7975 84.2468 14.7975C83.5516 14.7975 82.9634 14.9813 82.4821 15.3489C82.0075 15.7166 81.6432 16.238 81.3892 16.9131C81.1352 17.5882 81.0082 18.3837 81.0082 19.2995ZM92.6972 27V11.5989H96.8382V14.2861H96.9987C97.2794 13.3302 97.7507 12.6083 98.4124 12.1203C99.0742 11.6257 99.8362 11.3783 100.699 11.3783C100.912 11.3783 101.143 11.3917 101.39 11.4185C101.638 11.4452 101.855 11.482 102.042 11.5287V15.3189C101.842 15.2587 101.564 15.2052 101.21 15.1584C100.856 15.1116 100.531 15.0882 100.237 15.0882C99.6089 15.0882 99.0474 15.2253 98.5528 15.4993C98.0648 15.7667 97.6771 16.141 97.3897 16.6223C97.1089 17.1036 96.9686 17.6584 96.9686 18.2868V27H92.6972ZM106.201 27.2908C105.218 27.2908 104.343 27.1203 103.574 26.7794C102.805 26.4318 102.197 25.9205 101.749 25.2453C101.308 24.5635 101.087 23.7146 101.087 22.6985C101.087 21.8429 101.244 21.1243 101.559 20.5428C101.873 19.9612 102.301 19.4933 102.842 19.139C103.384 18.7848 103.998 18.5174 104.687 18.3369C105.382 18.1564 106.111 18.0294 106.873 17.9559C107.769 17.8623 108.49 17.7754 109.039 17.6952C109.587 17.6083 109.984 17.4813 110.232 17.3142C110.479 17.1471 110.603 16.8997 110.603 16.5722V16.512C110.603 15.877 110.402 15.3857 110.001 15.0381C109.607 14.6905 109.045 14.5167 108.317 14.5167C107.548 14.5167 106.936 14.6872 106.482 15.0281C106.027 15.3623 105.726 15.7834 105.579 16.2914L101.629 15.9706C101.829 15.0348 102.224 14.2259 102.812 13.5441C103.4 12.8556 104.159 12.3275 105.088 11.9599C106.024 11.5856 107.107 11.3984 108.337 11.3984C109.192 11.3984 110.011 11.4987 110.793 11.6992C111.582 11.8997 112.281 12.2106 112.889 12.6317C113.504 13.0528 113.988 13.5943 114.343 14.256C114.697 14.9111 114.874 15.6965 114.874 16.6123V27H110.823V24.8643H110.703C110.456 25.3456 110.125 25.7701 109.71 26.1377C109.296 26.4987 108.798 26.7828 108.216 26.99C107.635 27.1905 106.963 27.2908 106.201 27.2908ZM107.424 24.3429C108.053 24.3429 108.607 24.2193 109.089 23.9719C109.57 23.7179 109.948 23.377 110.222 22.9492C110.496 22.5214 110.633 22.0368 110.633 21.4953V19.861C110.499 19.9479 110.315 20.0281 110.081 20.1016C109.854 20.1684 109.597 20.232 109.309 20.2921C109.022 20.3456 108.734 20.3957 108.447 20.4425C108.16 20.4826 107.899 20.5194 107.665 20.5528C107.164 20.6263 106.726 20.7433 106.351 20.9037C105.977 21.0642 105.686 21.2814 105.479 21.5555C105.272 21.8229 105.168 22.1571 105.168 22.5582C105.168 23.1397 105.379 23.5842 105.8 23.8917C106.228 24.1925 106.769 24.3429 107.424 24.3429ZM123.147 27.3008C121.569 27.3008 120.212 26.9666 119.076 26.2981C117.946 25.623 117.077 24.6872 116.469 23.4906C115.867 22.2941 115.566 20.9171 115.566 19.3596C115.566 17.7821 115.87 16.3984 116.479 15.2086C117.094 14.012 117.966 13.0795 119.096 12.4111C120.225 11.736 121.569 11.3984 123.126 11.3984C124.47 11.3984 125.647 11.6424 126.656 12.1303C127.665 12.6183 128.464 13.3035 129.052 14.1858C129.641 15.0682 129.965 16.1043 130.025 17.2941H125.994C125.881 16.5254 125.58 15.9071 125.092 15.4392C124.61 14.9646 123.979 14.7273 123.197 14.7273C122.535 14.7273 121.957 14.9078 121.462 15.2687C120.974 15.623 120.593 16.141 120.319 16.8229C120.045 17.5047 119.908 18.3302 119.908 19.2995C119.908 20.2821 120.042 21.1176 120.309 21.8062C120.583 22.4947 120.967 23.0194 121.462 23.3803C121.957 23.7413 122.535 23.9218 123.197 23.9218C123.685 23.9218 124.122 23.8215 124.51 23.621C124.905 23.4205 125.229 23.1297 125.483 22.7487C125.743 22.361 125.914 21.8964 125.994 21.3549H130.025C129.958 22.5314 129.637 23.5675 129.062 24.4632C128.494 25.3523 127.709 26.0475 126.706 26.5488C125.703 27.0501 124.517 27.3008 123.147 27.3008ZM137.778 27.3008C136.194 27.3008 134.831 26.9799 133.687 26.3382C132.551 25.6898 131.675 24.7741 131.06 23.5909C130.446 22.4011 130.138 20.994 130.138 19.3697C130.138 17.7854 130.446 16.3951 131.06 15.1985C131.675 14.002 132.541 13.0695 133.657 12.4011C134.78 11.7326 136.097 11.3984 137.608 11.3984C138.624 11.3984 139.57 11.5622 140.446 11.8897C141.328 12.2106 142.097 12.6952 142.752 13.3436C143.413 13.992 143.928 14.8075 144.296 15.7901C144.663 16.766 144.847 17.9091 144.847 19.2193V20.3924H131.843V17.7453H140.827C140.827 17.1303 140.693 16.5856 140.425 16.111C140.158 15.6364 139.787 15.2654 139.312 14.998C138.845 14.7239 138.3 14.5869 137.678 14.5869C137.03 14.5869 136.455 14.7373 135.954 15.0381C135.459 15.3322 135.071 15.7299 134.79 16.2313C134.51 16.7259 134.366 17.2774 134.359 17.8857V20.4024C134.359 21.1644 134.5 21.8229 134.78 22.3777C135.068 22.9325 135.472 23.3603 135.994 23.6611C136.515 23.9619 137.133 24.1123 137.849 24.1123C138.323 24.1123 138.758 24.0455 139.152 23.9118C139.546 23.7781 139.884 23.5775 140.165 23.3102C140.446 23.0428 140.659 22.7152 140.806 22.3275L144.757 22.5882C144.556 23.5374 144.145 24.3663 143.524 25.0749C142.909 25.7767 142.113 26.3249 141.137 26.7193C140.168 27.107 139.048 27.3008 137.778 27.3008Z" fill="white"/>
<circle cx="9.5" cy="16.5" r="9.5" fill="#4E74FF"/>
<path d="M34.5192 15.6362C35.1807 16.0221 35.1807 16.9779 34.5192 17.3638L19.5039 26.1227C18.8372 26.5116 18 26.0308 18 25.259L18 7.74104C18 6.96925 18.8372 6.48837 19.5039 6.87726L27 11.25L34.5192 15.6362Z" fill="#4E74FF"/>
</svg>
